<svg width="48" height="48" viewBox="0 0 48 48" fill="none" xmlns="http://www.w3.org/2000/svg">
<path fill-rule="evenodd" clip-rule="evenodd" d="M24 8.5C23.1716 8.5 22.5 9.17158 22.5 10V38C22.5 38.8284 23.1716 39.5 24 39.5C24.8284 39.5 25.5 38.8284 25.5 38V10C25.5 9.17158 24.8284 8.5 24 8.5Z" fill="black"/>
<path fill-rule="evenodd" clip-rule="evenodd" d="M14 8.5C13.1716 8.5 12.5 9.17158 12.5 10L12.5 38C12.5 38.8284 13.1716 39.5 14 39.5C14.8284 39.5 15.5 38.8284 15.5 38L15.5 10C15.5 9.17158 14.8284 8.5 14 8.5Z" fill="black"/>
<path fill-rule="evenodd" clip-rule="evenodd" d="M34 8.5C33.1716 8.5 32.5 9.17158 32.5 10V38C32.5 38.8284 33.1716 39.5 34 39.5C34.8284 39.5 35.5 38.8284 35.5 38V10C35.5 9.17158 34.8284 8.5 34 8.5Z" fill="black"/>
<rect x="3.81641" y="14.7087" width="4" height="45.5326" rx="2" transform="rotate(-58.9989 3.81641 14.7087)" fill="black"/>
</svg>
