<svg width="54" height="28" viewBox="0 0 54 28" fill="none" xmlns="http://www.w3.org/2000/svg">
<path d="M4.4095 17.9795C4.4095 17.8235 4.43767 17.6783 4.494 17.544C4.55467 17.4097 4.63483 17.2927 4.7345 17.193C4.8385 17.0933 4.95983 17.0153 5.0985 16.959C5.23717 16.8983 5.38883 16.868 5.5535 16.868C5.71383 16.868 5.86333 16.8983 6.002 16.959C6.14067 17.0153 6.262 17.0933 6.366 17.193C6.47 17.2927 6.55017 17.4097 6.6065 17.544C6.66717 17.6783 6.6975 17.8235 6.6975 17.9795C6.6975 18.1355 6.66717 18.2828 6.6065 18.4215C6.55017 18.5558 6.47 18.6728 6.366 18.7725C6.262 18.8722 6.14067 18.9502 6.002 19.0065C5.86333 19.0628 5.71383 19.091 5.5535 19.091C5.38883 19.091 5.23717 19.0628 5.0985 19.0065C4.95983 18.9502 4.8385 18.8722 4.7345 18.7725C4.63483 18.6728 4.55467 18.5558 4.494 18.4215C4.43767 18.2828 4.4095 18.1355 4.4095 17.9795ZM10.2369 11.2195V13.4295H13.2139V15.0545H10.2369V17.31H14.1239V19H8.02685V9.5295H14.1239V11.2195H10.2369ZM23.747 9.5295V19H22.603C22.434 19 22.291 18.974 22.174 18.922C22.0613 18.8657 21.9487 18.7703 21.836 18.636L17.3705 12.9875C17.3878 13.1565 17.3987 13.3212 17.403 13.4815C17.4117 13.6375 17.416 13.7848 17.416 13.9235V19H15.479V9.5295H16.636C16.7313 9.5295 16.8115 9.53383 16.8765 9.5425C16.9415 9.55117 17 9.5685 17.052 9.5945C17.104 9.61617 17.1538 9.64867 17.2015 9.692C17.2492 9.73533 17.3033 9.79383 17.364 9.8675L21.8685 15.555C21.8468 15.373 21.8317 15.1975 21.823 15.0285C21.8143 14.8552 21.81 14.6927 21.81 14.541V9.5295H23.747Z" fill="black"/>
<path d="M32 19L25.0718 13L38.9282 13L32 19Z" fill="black"/>
</svg>
