<svg width="50" height="56" viewBox="0 0 50 56" fill="none" xmlns="http://www.w3.org/2000/svg">
<path d="M0.4095 45.9795C0.4095 45.8235 0.437667 45.6783 0.494 45.544C0.554667 45.4097 0.634833 45.2927 0.7345 45.193C0.8385 45.0933 0.959833 45.0153 1.0985 44.959C1.23717 44.8983 1.38883 44.868 1.5535 44.868C1.71383 44.868 1.86333 44.8983 2.002 44.959C2.14067 45.0153 2.262 45.0933 2.366 45.193C2.47 45.2927 2.55017 45.4097 2.6065 45.544C2.66717 45.6783 2.6975 45.8235 2.6975 45.9795C2.6975 46.1355 2.66717 46.2828 2.6065 46.4215C2.55017 46.5558 2.47 46.6728 2.366 46.7725C2.262 46.8722 2.14067 46.9502 2.002 47.0065C1.86333 47.0628 1.71383 47.091 1.5535 47.091C1.38883 47.091 1.23717 47.0628 1.0985 47.0065C0.959833 46.9502 0.8385 46.8722 0.7345 46.7725C0.634833 46.6728 0.554667 46.5558 0.494 46.4215C0.437667 46.2828 0.4095 46.1355 0.4095 45.9795ZM6.23685 39.2195V41.618H9.47385V43.3145H6.23685V47H4.02685V37.5295H10.1239V39.2195H6.23685ZM14.4711 41.982C14.7701 41.982 15.0236 41.9452 15.2316 41.8715C15.444 41.7935 15.6173 41.6873 15.7516 41.553C15.886 41.4187 15.9835 41.2627 16.0441 41.085C16.1048 40.903 16.1351 40.708 16.1351 40.5C16.1351 40.084 15.9986 39.759 15.7256 39.525C15.457 39.291 15.0388 39.174 14.4711 39.174H13.5871V41.982H14.4711ZM19.1381 47H17.1491C16.7808 47 16.5165 46.8613 16.3561 46.584L14.7831 43.8345C14.7095 43.7175 14.6271 43.633 14.5361 43.581C14.4451 43.5247 14.3151 43.4965 14.1461 43.4965H13.5871V47H11.3901V37.5295H14.4711C15.1558 37.5295 15.7386 37.601 16.2196 37.744C16.705 37.8827 17.0993 38.0777 17.4026 38.329C17.7103 38.5803 17.9335 38.8772 18.0721 39.2195C18.2108 39.5618 18.2801 39.9345 18.2801 40.3375C18.2801 40.6452 18.239 40.9355 18.1566 41.2085C18.0743 41.4815 17.953 41.735 17.7926 41.969C17.6323 42.1987 17.433 42.4045 17.1946 42.5865C16.9606 42.7685 16.6898 42.918 16.3821 43.035C16.5251 43.1087 16.6595 43.2018 16.7851 43.3145C16.9108 43.4228 17.0235 43.5528 17.1231 43.7045L19.1381 47Z" fill="black"/>
<path d="M28 47L21.0718 41H34.9282L28 47Z" fill="black"/>
<path d="M0.4095 17.9795C0.4095 17.8235 0.437667 17.6783 0.494 17.544C0.554667 17.4097 0.634833 17.2927 0.7345 17.193C0.8385 17.0933 0.959833 17.0153 1.0985 16.959C1.23717 16.8983 1.38883 16.868 1.5535 16.868C1.71383 16.868 1.86333 16.8983 2.002 16.959C2.14067 17.0153 2.262 17.0933 2.366 17.193C2.47 17.2927 2.55017 17.4097 2.6065 17.544C2.66717 17.6783 2.6975 17.8235 2.6975 17.9795C2.6975 18.1355 2.66717 18.2828 2.6065 18.4215C2.55017 18.5558 2.47 18.6728 2.366 18.7725C2.262 18.8722 2.14067 18.9502 2.002 19.0065C1.86333 19.0628 1.71383 19.091 1.5535 19.091C1.38883 19.091 1.23717 19.0628 1.0985 19.0065C0.959833 18.9502 0.8385 18.8722 0.7345 18.7725C0.634833 18.6728 0.554667 18.5558 0.494 18.4215C0.437667 18.2828 0.4095 18.1355 0.4095 17.9795ZM6.23685 11.2195V13.4295H9.21385V15.0545H6.23685V17.31H10.1239V19H4.02685V9.5295H10.1239V11.2195H6.23685ZM19.747 9.5295V19H18.603C18.434 19 18.291 18.974 18.174 18.922C18.0613 18.8657 17.9487 18.7703 17.836 18.636L13.3705 12.9875C13.3878 13.1565 13.3987 13.3212 13.403 13.4815C13.4117 13.6375 13.416 13.7848 13.416 13.9235V19H11.479V9.5295H12.636C12.7313 9.5295 12.8115 9.53383 12.8765 9.5425C12.9415 9.55117 13 9.5685 13.052 9.5945C13.104 9.61617 13.1538 9.64867 13.2015 9.692C13.2492 9.73533 13.3033 9.79383 13.364 9.8675L17.8685 15.555C17.8468 15.373 17.8317 15.1975 17.823 15.0285C17.8143 14.8552 17.81 14.6927 17.81 14.541V9.5295H19.747Z" fill="black"/>
<path d="M28 19L21.0718 13L34.9282 13L28 19Z" fill="black"/>
</svg>
