<svg width="50" height="28" viewBox="0 0 50 28" fill="none" xmlns="http://www.w3.org/2000/svg">
<path d="M0.4095 17.9795C0.4095 17.8235 0.437667 17.6783 0.494 17.544C0.554667 17.4097 0.634833 17.2927 0.7345 17.193C0.8385 17.0933 0.959833 17.0153 1.0985 16.959C1.23717 16.8983 1.38883 16.868 1.5535 16.868C1.71383 16.868 1.86333 16.8983 2.002 16.959C2.14067 17.0153 2.262 17.0933 2.366 17.193C2.47 17.2927 2.55017 17.4097 2.6065 17.544C2.66717 17.6783 2.6975 17.8235 2.6975 17.9795C2.6975 18.1355 2.66717 18.2828 2.6065 18.4215C2.55017 18.5558 2.47 18.6728 2.366 18.7725C2.262 18.8722 2.14067 18.9502 2.002 19.0065C1.86333 19.0628 1.71383 19.091 1.5535 19.091C1.38883 19.091 1.23717 19.0628 1.0985 19.0065C0.959833 18.9502 0.8385 18.8722 0.7345 18.7725C0.634833 18.6728 0.554667 18.5558 0.494 18.4215C0.437667 18.2828 0.4095 18.1355 0.4095 17.9795ZM6.23685 11.2195V13.618H9.47385V15.3145H6.23685V19H4.02685V9.5295H10.1239V11.2195H6.23685ZM14.4711 13.982C14.7701 13.982 15.0236 13.9452 15.2316 13.8715C15.444 13.7935 15.6173 13.6873 15.7516 13.553C15.886 13.4187 15.9835 13.2627 16.0441 13.085C16.1048 12.903 16.1351 12.708 16.1351 12.5C16.1351 12.084 15.9986 11.759 15.7256 11.525C15.457 11.291 15.0388 11.174 14.4711 11.174H13.5871V13.982H14.4711ZM19.1381 19H17.1491C16.7808 19 16.5165 18.8613 16.3561 18.584L14.7831 15.8345C14.7095 15.7175 14.6271 15.633 14.5361 15.581C14.4451 15.5247 14.3151 15.4965 14.1461 15.4965H13.5871V19H11.3901V9.5295H14.4711C15.1558 9.5295 15.7386 9.601 16.2196 9.744C16.705 9.88267 17.0993 10.0777 17.4026 10.329C17.7103 10.5803 17.9335 10.8772 18.0721 11.2195C18.2108 11.5618 18.2801 11.9345 18.2801 12.3375C18.2801 12.6452 18.239 12.9355 18.1566 13.2085C18.0743 13.4815 17.953 13.735 17.7926 13.969C17.6323 14.1987 17.433 14.4045 17.1946 14.5865C16.9606 14.7685 16.6898 14.918 16.3821 15.035C16.5251 15.1087 16.6595 15.2018 16.7851 15.3145C16.9108 15.4228 17.0235 15.5528 17.1231 15.7045L19.1381 19Z" fill="black"/>
<path d="M28 19L21.0718 13L34.9282 13L28 19Z" fill="black"/>
</svg>
