<svg width="50" height="56" viewBox="0 0 50 56" fill="none" xmlns="http://www.w3.org/2000/svg">
<path d="M0.4095 17.9795C0.4095 17.8235 0.437667 17.6783 0.494 17.544C0.554667 17.4097 0.634833 17.2927 0.7345 17.193C0.8385 17.0933 0.959833 17.0153 1.0985 16.959C1.23717 16.8983 1.38883 16.868 1.5535 16.868C1.71383 16.868 1.86333 16.8983 2.002 16.959C2.14067 17.0153 2.262 17.0933 2.366 17.193C2.47 17.2927 2.55017 17.4097 2.6065 17.544C2.66717 17.6783 2.6975 17.8235 2.6975 17.9795C2.6975 18.1355 2.66717 18.2828 2.6065 18.4215C2.55017 18.5558 2.47 18.6728 2.366 18.7725C2.262 18.8722 2.14067 18.9502 2.002 19.0065C1.86333 19.0628 1.71383 19.091 1.5535 19.091C1.38883 19.091 1.23717 19.0628 1.0985 19.0065C0.959833 18.9502 0.8385 18.8722 0.7345 18.7725C0.634833 18.6728 0.554667 18.5558 0.494 18.4215C0.437667 18.2828 0.4095 18.1355 0.4095 17.9795ZM6.23685 11.2195V13.618H9.47385V15.3145H6.23685V19H4.02685V9.5295H10.1239V11.2195H6.23685ZM14.4711 13.982C14.7701 13.982 15.0236 13.9452 15.2316 13.8715C15.444 13.7935 15.6173 13.6873 15.7516 13.553C15.886 13.4187 15.9835 13.2627 16.0441 13.085C16.1048 12.903 16.1351 12.708 16.1351 12.5C16.1351 12.084 15.9986 11.759 15.7256 11.525C15.457 11.291 15.0388 11.174 14.4711 11.174H13.5871V13.982H14.4711ZM19.1381 19H17.1491C16.7808 19 16.5165 18.8613 16.3561 18.584L14.7831 15.8345C14.7095 15.7175 14.6271 15.633 14.5361 15.581C14.4451 15.5247 14.3151 15.4965 14.1461 15.4965H13.5871V19H11.3901V9.5295H14.4711C15.1558 9.5295 15.7386 9.601 16.2196 9.744C16.705 9.88267 17.0993 10.0777 17.4026 10.329C17.7103 10.5803 17.9335 10.8772 18.0721 11.2195C18.2108 11.5618 18.2801 11.9345 18.2801 12.3375C18.2801 12.6452 18.239 12.9355 18.1566 13.2085C18.0743 13.4815 17.953 13.735 17.7926 13.969C17.6323 14.1987 17.433 14.4045 17.1946 14.5865C16.9606 14.7685 16.6898 14.918 16.3821 15.035C16.5251 15.1087 16.6595 15.2018 16.7851 15.3145C16.9108 15.4228 17.0235 15.5528 17.1231 15.7045L19.1381 19Z" fill="black"/>
<path d="M28 19L21.0718 13L34.9282 13L28 19Z" fill="black"/>
<path d="M0.4095 45.9795C0.4095 45.8235 0.437667 45.6783 0.494 45.544C0.554667 45.4097 0.634833 45.2927 0.7345 45.193C0.8385 45.0933 0.959833 45.0153 1.0985 44.959C1.23717 44.8983 1.38883 44.868 1.5535 44.868C1.71383 44.868 1.86333 44.8983 2.002 44.959C2.14067 45.0153 2.262 45.0933 2.366 45.193C2.47 45.2927 2.55017 45.4097 2.6065 45.544C2.66717 45.6783 2.6975 45.8235 2.6975 45.9795C2.6975 46.1355 2.66717 46.2828 2.6065 46.4215C2.55017 46.5558 2.47 46.6728 2.366 46.7725C2.262 46.8722 2.14067 46.9502 2.002 47.0065C1.86333 47.0628 1.71383 47.091 1.5535 47.091C1.38883 47.091 1.23717 47.0628 1.0985 47.0065C0.959833 46.9502 0.8385 46.8722 0.7345 46.7725C0.634833 46.6728 0.554667 46.5558 0.494 46.4215C0.437667 46.2828 0.4095 46.1355 0.4095 45.9795ZM6.23685 39.2195V41.4295H9.21385V43.0545H6.23685V45.31H10.1239V47H4.02685V37.5295H10.1239V39.2195H6.23685ZM19.747 37.5295V47H18.603C18.434 47 18.291 46.974 18.174 46.922C18.0613 46.8657 17.9487 46.7703 17.836 46.636L13.3705 40.9875C13.3878 41.1565 13.3987 41.3212 13.403 41.4815C13.4117 41.6375 13.416 41.7848 13.416 41.9235V47H11.479V37.5295H12.636C12.7313 37.5295 12.8115 37.5338 12.8765 37.5425C12.9415 37.5512 13 37.5685 13.052 37.5945C13.104 37.6162 13.1538 37.6487 13.2015 37.692C13.2492 37.7353 13.3033 37.7938 13.364 37.8675L17.8685 43.555C17.8468 43.373 17.8317 43.1975 17.823 43.0285C17.8143 42.8552 17.81 42.6927 17.81 42.541V37.5295H19.747Z" fill="black"/>
<path d="M28 47L21.0718 41H34.9282L28 47Z" fill="black"/>
</svg>
